<svg width="19" height="20" viewBox="0 0 19 20" fill="none" xmlns="http://www.w3.org/2000/svg">
<path d="M1.31781 1.98495C0.994807 1.97595 0.704807 2.04795 0.461807 2.21795C0.151807 2.43495 0.00580697 2.77695 0.00280697 3.17095L0.00580697 10.494C-0.028193 10.884 0.086807 11.242 0.358807 11.508C0.613807 11.758 0.946807 11.876 1.29881 11.868H3.48381C4.36766 12.1496 5.21033 12.547 5.98981 13.05C7.03781 13.728 7.80981 14.7 8.10481 15.576C8.20581 15.878 8.25981 16.128 8.36181 16.716C8.49981 17.505 8.58581 17.872 8.78381 18.344C9.19381 19.326 9.73181 19.806 10.4738 19.967C11.2038 20.125 12.2668 19.704 12.9388 18.96C13.6838 18.136 14.0128 17.105 13.8908 15.831C13.8388 15.283 13.6868 14.67 13.4368 13.987C14.2906 14.1114 15.1564 14.1302 16.0148 14.043C18.0218 13.838 19.1488 12.531 18.9848 10.879C18.9128 10.167 18.6548 9.56195 18.2158 9.08695C18.5848 8.37595 18.7318 7.67295 18.6398 6.98695C18.5338 6.19695 18.0938 5.53895 17.3618 5.02795C17.3048 4.33495 17.1458 3.78195 16.8638 3.36795C16.6416 3.03348 16.3517 2.74936 16.0128 2.53395C15.9048 1.84995 15.6778 1.31495 15.3068 0.93895C14.6918 0.31295 13.5928 -0.0600502 12.5888 0.00794983C11.6358 0.0719498 11.0718 0.18795 9.74181 0.60795C8.86481 0.88495 7.04881 1.34495 4.31181 1.98495H1.31781Z" fill="#67AAF9"/>
<path d="M1.35981 10.505V3.34795H4.38981L4.54281 3.32995C7.35581 2.67395 9.21981 2.20095 10.1488 1.90795C11.3828 1.51895 11.8428 1.42395 12.6798 1.36795C13.3058 1.32495 14.0168 1.56595 14.3408 1.89595C14.5198 2.07795 14.6538 2.45195 14.7068 3.03195C14.7178 3.15357 14.7613 3.27001 14.8327 3.36906C14.9041 3.46811 15.0009 3.54613 15.1128 3.59495C15.3618 3.70295 15.5688 3.87895 15.7418 4.13495C15.9018 4.36895 16.0058 4.80495 16.0248 5.43595C16.0281 5.55195 16.061 5.66519 16.1204 5.76493C16.1797 5.86468 16.2635 5.94763 16.3638 6.00595C16.9458 6.34295 17.2338 6.72295 17.2938 7.16895C17.3598 7.66195 17.1998 8.21695 16.7808 8.84895C16.6825 8.99717 16.6459 9.17789 16.6788 9.35269C16.7116 9.52748 16.8114 9.68256 16.9568 9.78495C17.3578 10.067 17.5778 10.459 17.6328 11.015C17.7208 11.901 17.1558 12.556 15.8768 12.687C14.7377 12.7996 13.5875 12.7037 12.4828 12.404C12.3575 12.3712 12.2254 12.3749 12.1021 12.4147C11.9789 12.4544 11.8695 12.5286 11.787 12.6284C11.7044 12.7282 11.652 12.8495 11.6361 12.978C11.6201 13.1066 11.6412 13.237 11.6968 13.354C12.1968 14.412 12.4748 15.285 12.5398 15.961C12.6248 16.858 12.4178 17.508 11.9338 18.044C11.5668 18.45 10.9798 18.682 10.7598 18.634C10.4698 18.572 10.2808 18.404 10.0348 17.816C9.88981 17.468 9.81981 17.172 9.69981 16.481C9.58481 15.825 9.52181 15.529 9.39081 15.141C8.99581 13.965 8.02681 12.746 6.72581 11.905C5.814 11.3162 4.82581 10.8553 3.78881 10.535C3.72402 10.515 3.6566 10.5049 3.58881 10.505H1.35981ZM1.31781 1.98495C0.994807 1.97595 0.704807 2.04795 0.461807 2.21795C0.151807 2.43495 0.00580697 2.77695 0.00280697 3.17095L0.00580697 10.494C-0.028193 10.884 0.086807 11.242 0.358807 11.508C0.613807 11.758 0.946807 11.876 1.29881 11.868H3.48381C4.36766 12.1496 5.21033 12.547 5.98981 13.05C7.03781 13.728 7.80981 14.7 8.10481 15.576C8.20581 15.878 8.25981 16.128 8.36181 16.716C8.49981 17.505 8.58581 17.872 8.78381 18.344C9.19381 19.326 9.73181 19.806 10.4738 19.967C11.2038 20.125 12.2668 19.704 12.9388 18.96C13.6838 18.136 14.0128 17.105 13.8908 15.831C13.8388 15.283 13.6868 14.67 13.4368 13.987C14.2906 14.1114 15.1564 14.1302 16.0148 14.043C18.0218 13.838 19.1488 12.531 18.9848 10.879C18.9128 10.167 18.6548 9.56195 18.2158 9.08695C18.5848 8.37595 18.7318 7.67295 18.6398 6.98695C18.5338 6.19695 18.0938 5.53895 17.3618 5.02795C17.3048 4.33495 17.1458 3.78195 16.8638 3.36795C16.6416 3.03348 16.3517 2.74936 16.0128 2.53395C15.9048 1.84995 15.6778 1.31495 15.3068 0.93895C14.6918 0.31295 13.5928 -0.0600502 12.5888 0.00794983C11.6358 0.0719498 11.0718 0.18795 9.74181 0.60795C8.86481 0.88495 7.04881 1.34495 4.31181 1.98495H1.31781ZM3.01881 10.816C3.01854 10.9054 3.03594 10.9941 3.06999 11.0768C3.10405 11.1595 3.1541 11.2347 3.21727 11.2981C3.28044 11.3614 3.35549 11.4117 3.43812 11.446C3.52075 11.4803 3.60934 11.498 3.69881 11.498C3.78811 11.4977 3.87648 11.4798 3.95888 11.4454C4.04128 11.411 4.1161 11.3607 4.17905 11.2974C4.24201 11.234 4.29188 11.1589 4.32581 11.0763C4.35974 10.9937 4.37707 10.9053 4.37681 10.816V3.13795C4.37694 3.04865 4.35948 2.9602 4.32543 2.87765C4.29138 2.7951 4.2414 2.72006 4.17835 2.65682C4.1153 2.59359 4.04041 2.54339 3.95796 2.50909C3.8755 2.4748 3.78711 2.45708 3.69781 2.45695C3.60851 2.45708 3.52011 2.4748 3.43766 2.50909C3.35521 2.54339 3.28032 2.59359 3.21727 2.65682C3.15422 2.72006 3.10424 2.7951 3.07019 2.87765C3.03613 2.9602 3.01868 3.04865 3.01881 3.13795V10.816Z" fill="black"/>
</svg>
