<svg width="72" height="72" viewBox="0 0 72 72" fill="none" xmlns="http://www.w3.org/2000/svg">
<path d="M68.4 27.4118H3.6C2.64522 27.4118 1.72955 27.0213 1.05442 26.3263C0.379285 25.6313 0 24.6887 0 23.7059C0 22.723 0.379285 21.7804 1.05442 21.0854C1.72955 20.3904 2.64522 20 3.6 20H68.4C69.3548 20 70.2704 20.3904 70.9456 21.0854C71.6207 21.7804 72 22.723 72 23.7059C72 24.6887 71.6207 25.6313 70.9456 26.3263C70.2704 27.0213 69.3548 27.4118 68.4 27.4118ZM56.4 44.7059H15.6C14.6452 44.7059 13.7295 44.3154 13.0544 43.6205C12.3793 42.9255 12 41.9829 12 41C12 40.0171 12.3793 39.0745 13.0544 38.3795C13.7295 37.6846 14.6452 37.2941 15.6 37.2941H56.4C57.3548 37.2941 58.2705 37.6846 58.9456 38.3795C59.6207 39.0745 60 40.0171 60 41C60 41.9829 59.6207 42.9255 58.9456 43.6205C58.2705 44.3154 57.3548 44.7059 56.4 44.7059ZM42 62H30C29.0452 62 28.1295 61.6096 27.4544 60.9146C26.7793 60.2196 26.4 59.277 26.4 58.2941C26.4 57.3113 26.7793 56.3687 27.4544 55.6737C28.1295 54.9787 29.0452 54.5882 30 54.5882H42C42.9548 54.5882 43.8705 54.9787 44.5456 55.6737C45.2207 56.3687 45.6 57.3113 45.6 58.2941C45.6 59.277 45.2207 60.2196 44.5456 60.9146C43.8705 61.6096 42.9548 62 42 62Z" fill="black"/>
</svg>
