<svg width="72" height="72" viewBox="0 0 72 72" fill="none" xmlns="http://www.w3.org/2000/svg">
<path fill-rule="evenodd" clip-rule="evenodd" d="M71.9551 39.5015L54.0474 21.5748C56.729 21.4851 59.4135 21.5453 62.0884 21.755C64.6006 21.9276 66.9655 23.0047 68.7461 24.7872C70.5267 26.5696 71.6026 28.9371 71.775 31.452C71.9623 33.8456 72.0631 36.5924 71.9551 39.5015Z" fill="black"/>
<path d="M31.4947 71.779C28.9819 71.6063 26.6165 70.5287 24.8359 68.7455C23.0552 66.9623 21.9797 64.594 21.8081 62.0784C21.5987 59.4019 21.5386 56.7158 21.628 54.0325L39.5322 71.9556C36.6298 72.0638 33.8858 71.9664 31.4947 71.779Z" fill="black"/>
<path fill-rule="evenodd" clip-rule="evenodd" d="M30.1048 30.0641C34.642 25.5221 40.8718 23.2582 47.0799 22.2417L71.2857 46.4768C70.2774 52.6951 68.016 58.9243 63.4788 63.4699C58.9379 68.012 52.7118 70.2722 46.5001 71.2851L22.2979 47.0572C23.3061 40.8389 25.5676 34.6062 30.1048 30.0641ZM46.6838 35.8426C47.1901 35.3363 47.8766 35.052 48.5923 35.052C49.308 35.052 49.9944 35.3363 50.5008 35.8426L52.1933 37.5369L53.8857 35.8426C54.133 35.577 54.4312 35.364 54.7624 35.2162C55.0937 35.0684 55.4514 34.989 55.814 34.9826C56.1766 34.9762 56.5368 35.0429 56.8731 35.1789C57.2094 35.3149 57.5149 35.5173 57.7713 35.774C58.0278 36.0307 58.23 36.3365 58.3658 36.6732C58.5016 37.0098 58.5683 37.3704 58.562 37.7334C58.5556 38.0965 58.4762 38.4545 58.3286 38.7861C58.181 39.1177 57.9681 39.4162 57.7028 39.6637L56.0103 41.358L57.7028 43.0523C57.9681 43.2998 58.181 43.5983 58.3286 43.9299C58.4762 44.2615 58.5556 44.6195 58.562 44.9826C58.5683 45.3456 58.5016 45.7062 58.3658 46.0428C58.23 46.3795 58.0278 46.6853 57.7713 46.942C57.5149 47.1987 57.2094 47.4011 56.8731 47.5371C56.5368 47.6731 56.1766 47.7398 55.814 47.7334C55.4514 47.727 55.0937 47.6476 54.7624 47.4998C54.4312 47.352 54.133 47.139 53.8857 46.8734L52.1933 45.1791L50.6088 46.7652L52.3013 48.4595C52.5667 48.707 52.7795 49.0055 52.9271 49.3371C53.0747 49.6688 53.1541 50.0268 53.1605 50.3898C53.1669 50.7528 53.1002 51.1134 52.9643 51.45C52.8285 51.7867 52.6263 52.0925 52.3699 52.3492C52.1134 52.6059 51.8079 52.8083 51.4716 52.9443C51.1353 53.0803 50.7751 53.1471 50.4125 53.1407C50.0499 53.1343 49.6922 53.0548 49.361 52.907C49.0297 52.7593 48.7315 52.5462 48.4843 52.2806L46.7918 50.5863L45.2074 52.1724L46.8998 53.8667C47.1652 54.1142 47.378 54.4127 47.5256 54.7443C47.6732 55.076 47.7526 55.434 47.759 55.797C47.7654 56.16 47.6987 56.5206 47.5628 56.8572C47.427 57.1939 47.2248 57.4997 46.9684 57.7564C46.7119 58.0132 46.4064 58.2155 46.0701 58.3515C45.7339 58.4875 45.3736 58.5543 45.011 58.5479C44.6484 58.5415 44.2908 58.462 43.9595 58.3142C43.6282 58.1665 43.33 57.9534 43.0828 57.6878L41.3903 55.9935L39.6978 57.6878C39.4506 57.9534 39.1524 58.1665 38.8211 58.3142C38.4898 58.462 38.1322 58.5415 37.7696 58.5479C37.407 58.5543 37.0468 58.4875 36.7105 58.3515C36.3742 58.2155 36.0687 58.0132 35.8122 57.7564C35.5558 57.4997 35.3536 57.1939 35.2178 56.8572C35.0819 56.5206 35.0152 56.16 35.0216 55.797C35.028 55.434 35.1074 55.076 35.255 54.7443C35.4026 54.4127 35.6154 54.1142 35.8808 53.8667L37.5732 52.1724L35.8808 50.4782C35.6154 50.2307 35.4026 49.9322 35.255 49.6005C35.1074 49.2689 35.028 48.9109 35.0216 48.5479C35.0152 48.1849 35.0819 47.8243 35.2178 47.4876C35.3536 47.151 35.5558 46.8452 35.8122 46.5884C36.0687 46.3317 36.3742 46.1293 36.7105 45.9933C37.0468 45.8574 37.407 45.7906 37.7696 45.797C38.1322 45.8034 38.4898 45.8829 38.8211 46.0306C39.1524 46.1784 39.4506 46.3914 39.6978 46.6571L41.3903 48.3513L42.9747 46.7652L41.2823 45.071C41.0169 44.8234 40.8041 44.525 40.6565 44.1933C40.5089 43.8617 40.4295 43.5037 40.4231 43.1407C40.4167 42.7776 40.4834 42.4171 40.6192 42.0804C40.7551 41.7438 40.9573 41.438 41.2137 41.1812C41.4702 40.9245 41.7757 40.7221 42.1119 40.5861C42.4482 40.4501 42.8084 40.3834 43.1711 40.3898C43.5337 40.3962 43.8913 40.4756 44.2226 40.6234C44.5539 40.7712 44.8521 40.9842 45.0993 41.2499L46.7918 42.9441L48.3762 41.358L46.6838 39.6637C46.178 39.1568 45.8939 38.4696 45.8939 37.7532C45.8939 37.0367 46.178 36.3496 46.6838 35.8426Z" fill="black"/>
<path d="M14.1382 30.5364C11.189 25.9114 8.02731 22.8761 5.63985 21.0124C4.72471 20.2925 3.76228 19.6349 2.75906 19.0442C2.44945 18.8648 2.13357 18.6965 1.812 18.5395L1.77959 18.5215L0.656078 18.0277C-0.126284 21.302 -0.209948 24.7047 0.410547 28.0136C1.03104 31.3225 2.34174 34.4631 4.25707 37.2305C7.33254 41.7042 11.8655 44.9689 17.0802 46.466L17.1522 46.484C17.1522 46.484 17.3719 44.0111 17.7104 42.4647C17.9552 41.3292 18.2037 40.5541 18.5026 39.5989C17.4142 36.4127 15.9477 33.3689 14.1346 30.5327L14.1382 30.5364ZM27.4438 4.63218C28.2361 7.78279 29.7593 12.1086 32.7085 16.7371C33.5115 17.9988 34.3289 19.1379 35.1464 20.1689C37.4934 19.0558 39.959 18.2128 42.496 17.6564C43.8176 17.3572 45.9097 17.0472 45.9097 17.0472L45.8953 16.9931C45.1744 14.5098 44.0555 12.1601 42.5824 10.0358C40.753 7.37393 38.3928 5.12018 35.6504 3.41653C32.908 1.71288 29.8428 0.596245 26.648 0.136983C26.6624 0.338853 26.6912 0.602004 26.7308 0.919227C26.8389 1.78438 27.0513 3.06048 27.4438 4.63218ZM21.2429 0.356876C21.2331 0.238021 21.2247 0.119054 21.2177 0C17.1629 0.379242 13.2805 1.82565 9.96464 4.1924C6.80534 6.42893 4.24822 9.41356 2.52139 12.88L3.93658 13.5036H3.94378L3.95459 13.5108L3.98699 13.5253L4.08062 13.5685L4.3903 13.7199C4.64237 13.8497 5.00247 14.0371 5.43819 14.2931C6.31323 14.7978 7.52317 15.5764 8.93115 16.6723C11.7399 18.8676 15.3517 22.3498 18.6754 27.566C19.7773 29.2963 20.7064 30.9906 21.4842 32.6163C22.7868 30.2798 24.4031 28.133 26.2879 26.2358C27.5401 24.9844 28.906 23.8524 30.3679 22.8545C29.6296 21.8812 28.8914 20.8322 28.1712 19.6967C25.4599 15.4696 23.4452 10.8335 22.2044 5.96596C21.8412 4.52977 21.5635 3.07327 21.3726 1.60414C21.3188 1.18834 21.2756 0.774859 21.2429 0.356876Z" fill="black"/>
</svg>
