<svg width="72" height="72" viewBox="0 0 72 72" fill="none" xmlns="http://www.w3.org/2000/svg">
<path d="M36 4C40.44 4 44 7.56 44 12C44 16.44 40.44 20 36 20C31.56 20 28 16.44 28 12C28 7.56 31.6 4 36 4ZM72 52V44C63.04 44 55.36 40.16 49.6 33.28L44.24 26.88C43.4958 25.9779 42.5611 25.2518 41.5029 24.7538C40.4448 24.2559 39.2895 23.9984 38.12 24H34C31.56 24 29.32 25.04 27.8 26.88L22.44 33.28C16.64 40.16 8.96 44 0 44V52C11.08 52 20.76 47.32 28 39V48L12.48 54.2C9.8 55.28 8 58 8 60.84C8 64.8 11.2 68 15.16 68H24V66C24 63.3478 25.0536 60.8043 26.9289 58.9289C28.8043 57.0536 31.3478 56 34 56H46C47.12 56 48 56.88 48 58C48 59.12 47.12 60 46 60H34C30.68 60 28 62.68 28 66V68H56.84C60.8 68 64 64.8 64 60.84C64 58 62.2 55.28 59.52 54.2L44 48V39C51.24 47.32 60.92 52 72 52Z" fill="black"/>
</svg>
