<svg width="72" height="72" viewBox="0 0 72 72" fill="none" xmlns="http://www.w3.org/2000/svg">
<path d="M55.2 50.3948H25.254L19.104 55.6442L12.954 50.3948H0V53.9944C0 58.5824 3.1695 62.32 7.089 62.3935C7.4535 64.6613 8.3355 66.7101 9.663 68.3134C11.6265 70.6846 14.481 71.9925 17.7 71.9925H37.5C40.719 71.9925 43.5735 70.6846 45.537 68.3104C46.8645 66.7071 47.7465 64.6583 48.111 62.3905C50.193 62.353 52.0635 61.2806 53.361 59.5963C54.5728 57.9817 55.2191 56.013 55.2 53.9944V50.3948ZM13.35 45.5952L19.0995 49.8233L24.9 45.5952H55.2V44.3954C55.1983 43.0129 54.72 41.6732 53.8456 40.6022C52.9712 39.5312 51.7543 38.7944 50.4 38.516C50.277 34.0629 48.45 30.3358 45.0735 27.7171C41.9505 25.2814 37.7775 23.9975 33 23.9975H22.2C11.967 23.9975 5.0355 29.8124 4.8 38.516C3.44567 38.7944 2.22876 39.5312 1.35439 40.6022C0.480031 41.6732 0.00168926 43.0129 0 44.3954V45.5952H13.35Z" fill="black"/>
<path d="M67.0618 11.9987H55.8733L57.2113 6.65031L63.8998 4.34955L62.3998 0L53.0998 2.99969L50.9263 11.9987H28.7998V16.7983H31.6123L31.8913 19.198H32.9998C38.8498 19.198 44.0488 20.8328 48.0178 23.9255C50.2254 25.6263 52.015 27.8092 53.2498 30.3073C54.0107 31.8572 54.5524 33.5053 54.8593 35.2043C57.0945 36.5804 58.752 38.7233 59.5219 41.2324C60.2918 43.7416 60.1215 46.4452 59.0428 48.8379C59.6748 50.4837 59.9992 52.2315 59.9998 53.9944C59.9998 57.345 58.8598 60.5382 56.7898 62.9859C55.5088 64.5119 53.8679 65.6948 52.0153 66.4281C51.3839 68.2271 50.4433 69.9021 49.2358 71.3776C49.0588 71.5905 48.8773 71.799 48.6913 72H59.9998C62.3998 72 63.4498 70.8001 63.7498 68.5504L69.2098 16.8057H71.9998V11.9987H67.0618Z" fill="black"/>
</svg>
