<svg width="72" height="72" viewBox="0 0 72 72" fill="none" xmlns="http://www.w3.org/2000/svg">
<path d="M65.9186 16.9385C65.9166 16.7039 65.8488 16.4744 65.7227 16.2748C65.5965 16.0753 65.4168 15.9133 65.2031 15.8067C64.9893 15.7 64.7498 15.6526 64.5104 15.6697C64.2711 15.6868 64.0412 15.7678 63.8456 15.9037L58.6965 19.5119L58.2911 19.7973C52.7427 14.3846 45.1274 11 36.6891 11C19.7667 11 6 24.4588 6 41C6 57.5412 19.7675 71 36.6891 71C41.7141 71.0009 46.6623 69.7954 51.0991 67.4894C55.5359 65.1834 59.3254 61.8475 62.1347 57.7749C62.2481 57.6117 62.3274 57.4282 62.368 57.235C62.4087 57.0418 62.41 56.8426 62.3717 56.649C62.3335 56.4553 62.2566 56.2709 62.1453 56.1063C62.034 55.9418 61.8906 55.8003 61.7232 55.6901L54.0456 50.4815C53.6844 50.2454 53.2424 50.1585 52.8159 50.2397C52.3894 50.3209 52.0131 50.5637 51.769 50.915C48.375 55.8196 42.7512 58.7478 36.7177 58.7478C26.7054 58.7478 18.5591 50.7863 18.5591 41.0017C18.5591 31.2171 26.7054 23.2556 36.7177 23.2556C40.9433 23.2556 44.819 24.6917 47.9046 27.0661L47.0375 27.6758L41.885 31.2831C41.6906 31.4208 41.5388 31.608 41.4458 31.8243C41.3529 32.0406 41.3226 32.2777 41.358 32.5098C41.3935 32.7418 41.4935 32.9598 41.647 33.1401C41.8006 33.3204 42.0019 33.456 42.2289 33.5322L64.2718 40.873C64.6711 41.0093 65.1086 40.9433 65.4568 40.7011C65.8025 40.4555 66.0017 40.0685 66 39.6587L65.9186 16.9385Z" fill="black"/>
</svg>
