<svg width="72" height="72" viewBox="0 0 72 72" fill="none" xmlns="http://www.w3.org/2000/svg">
<path fill-rule="evenodd" clip-rule="evenodd" d="M65.4999 40C69.0898 40 71.9999 37.0898 71.9999 33.5C71.9999 29.9101 69.0898 27 65.4999 27C61.9101 27 58.9999 29.9101 58.9999 33.5C58.9999 37.0898 61.9101 40 65.4999 40Z" fill="black"/>
<path fill-rule="evenodd" clip-rule="evenodd" d="M10.9999 32.5858C11.3904 32.1953 12.0236 32.1953 12.4141 32.5858L23.7278 43.8995C24.1184 44.29 24.1184 44.9232 23.7278 45.3137C23.3373 45.7042 22.7042 45.7042 22.3136 45.3137L10.9999 34C10.6094 33.6095 10.6094 32.9763 10.9999 32.5858Z" fill="black"/>
<path fill-rule="evenodd" clip-rule="evenodd" d="M32.9999 12.5858C33.3904 12.1953 34.0236 12.1953 34.4141 12.5858L44.3136 22.4853C44.7042 22.8758 44.7042 23.509 44.3136 23.8995C43.9231 24.29 43.2899 24.29 42.8994 23.8995L32.9999 14C32.6094 13.6095 32.6094 12.9763 32.9999 12.5858Z" fill="black"/>
<path fill-rule="evenodd" clip-rule="evenodd" d="M21.8993 15.4853C22.2899 15.0948 22.923 15.0948 23.3136 15.4853L37.4557 29.6274C37.8462 30.0179 37.8462 30.6511 37.4557 31.0416C37.0652 31.4322 36.432 31.4322 36.0415 31.0416L21.8993 16.8995C21.5088 16.509 21.5088 15.8758 21.8993 15.4853Z" fill="black"/>
<path fill-rule="evenodd" clip-rule="evenodd" d="M20.142 28.7279C20.5325 28.3374 21.1657 28.3374 21.5562 28.7279L25.5562 32.7279C25.9468 33.1184 25.9468 33.7516 25.5562 34.1421C25.1657 34.5327 24.5325 34.5327 24.142 34.1421L20.142 30.1421C19.7515 29.7516 19.7515 29.1184 20.142 28.7279Z" fill="black"/>
<path fill-rule="evenodd" clip-rule="evenodd" d="M49 29.5105C48.3351 29.5612 47.6734 29.7765 47.0771 30.1693L32.8462 39.5427C30.9719 40.7772 30.4533 43.2974 31.6878 45.1717C32.9223 47.0459 35.4425 47.5646 37.3168 46.33L30.2268 51H3.5C1.567 51 0 52.567 0 54.5C0 56.433 1.567 58 3.5 58H32.1389L34.0659 60.9257L58.7212 44.686L56.8952 41.9137C56.9637 41.6202 57 41.3143 57 41V18C57 15.7909 55.2091 14 53 14C50.7909 14 49 15.7909 49 18V29.5105Z" fill="black"/>
</svg>
